<svg xmlns="http://www.w3.org/2000/svg" enable-background="new 0 0 24 24" viewBox="0 0 24 24"><polygon fill="#DEDEDE" points="5.769 12 3.461 12 3.461 15.984 5.769 15.984 5.769 12"/><polygon fill="#DEDEDE" points="9.923 12 6.23 12 8.077 14.344 9.923 12"/><polygon fill="#DEDEDE" points="12.693 12 10.385 12 10.385 15.984 12.693 15.984 12.693 12"/><polygon fill="#DEDEDE" points="21.229 12 18.922 12 16.614 12 14.306 12 17.767 16.101 21.229 12"/><path d="M1.73,19.5h20.539c0.954,0,1.73-0.788,1.73-1.758V6.258c0-0.97-0.776-1.758-1.73-1.758H1.73C0.776,4.5,0,5.288,0,6.258v11.484C0,18.712,0.776,19.5,1.73,19.5L1.73,19.5z M16.614,12V8.015h2.308V12h2.307l-3.462,4.101L14.306,12H16.614L16.614,12z M3.461,8.015h2.308l2.309,2.931l2.308-2.931h2.309v7.97h-2.309v-4.57l-2.308,2.929l-2.309-2.929v4.57H3.461V8.015L3.461,8.015z"/><path fill="#212121" d="M5.769,11.414V12H6.23L5.769,11.414L5.769,11.414z M10.385,11.414L9.923,12h0.461V11.414L10.385,11.414z M22.269,4.5H1.73C0.776,4.5,0,5.288,0,6.258V12h3.461V8.015h2.308l2.309,2.931l2.308-2.931h2.309V12h3.921V8.015h2.308V12H24V6.258C24,5.288,23.224,4.5,22.269,4.5L22.269,4.5z"/></svg>